<?xml version="1.0" encoding="utf-8"?>
<!-- Generator: Adobe Illustrator 19.0.0, SVG Export Plug-In . SVG Version: 6.00 Build 0)  -->
<svg version="1.1" id="Layer_1" xmlns="http://www.w3.org/2000/svg" xmlns:xlink="http://www.w3.org/1999/xlink" x="0px" y="0px"
	 viewBox="0 0 252 216" style="enable-background:new 0 0 252 216;" xml:space="preserve">
<style type="text/css">
	.st0{fill:none;}
	.st1{clip-path:url(#XMLID_290_);}
	.st2{clip-path:url(#XMLID_291_);}
	.st3{fill:#0070B9;}
	.st4{fill:#FCED00;}
	.st5{fill:#2C3082;}
	.st6{fill:#181151;}
	.st7{fill:#FEC80A;}
	.st8{clip-path:url(#XMLID_291_);fill:#0070B9;}
	.st9{clip-path:url(#XMLID_291_);fill:#2C3082;}
	.st10{clip-path:url(#XMLID_292_);}
	.st11{clip-path:url(#XMLID_293_);fill:#F5C400;}
	.st12{fill:none;stroke:#A7A9AC;stroke-miterlimit:10;}
	.st13{fill:none;stroke:#A7A9AC;stroke-width:0.5;stroke-miterlimit:10;}
	.st14{fill:#2E3192;}
</style>
<g id="XMLID_58_">
	<g id="XMLID_6_">
		<rect id="XMLID_284_" x="8.8" y="21.3" class="st0" width="233.8" height="19.5"/>
		<path id="XMLID_252_" d="M26.5,25.8c0.1,0.4-0.1,0.7-0.5,0.7h-1.5c-0.3,0-0.5-0.1-0.7-0.4c-0.8-1.2-2.1-2-4-2
			c-2.2,0-3.2,0.9-3.2,2.1c0,1.3,1,2,4.1,2.9l0.8,0.2c4.2,1.3,5.6,3.2,5.6,5.5c0,3.2-2.6,5-6.6,5c-4.5,0-6.7-2.5-7.4-4.8
			c-0.1-0.4,0.1-0.6,0.5-0.6h1.6c0.4,0,0.6,0.1,0.7,0.4c0.8,1.4,2.2,2.4,4.6,2.4c2.4,0,3.5-0.7,3.5-2.1c0-1.3-1.1-2.3-4.1-3.3
			L19,31.5c-3.4-1.1-5.3-2.5-5.4-5c-0.1-3.2,2.8-5.1,6.4-5.1C23.3,21.4,25.5,23.3,26.5,25.8z"/>
		<path id="XMLID_254_" d="M50.7,21.8c0.4,0,0.6,0.3,0.5,0.7l-4.4,16.4c-0.1,0.3-0.3,0.5-0.7,0.5h-2.3c-0.4,0-0.6-0.2-0.7-0.5
			l-3.4-12.8l-3.4,12.8c-0.1,0.3-0.3,0.5-0.7,0.5h-2.3c-0.4,0-0.6-0.2-0.7-0.5l-4.4-16.4c-0.1-0.4,0.1-0.7,0.5-0.7h1.7
			c0.4,0,0.6,0.2,0.7,0.5l3.2,12.3h0.1l3.5-12.3c0.1-0.3,0.3-0.5,0.7-0.5h2.3c0.4,0,0.6,0.2,0.7,0.5l3.2,12.3H45l3.5-12.3
			c0.1-0.3,0.3-0.5,0.7-0.5H50.7z"/>
		<path id="XMLID_256_" d="M56.8,34.3l-1.6,4.6c-0.1,0.3-0.3,0.5-0.7,0.5h-1.9c-0.5,0-0.6-0.3-0.5-0.7l6.2-16.4
			c0.1-0.3,0.3-0.5,0.7-0.5h1.8c0.3,0,0.6,0.1,0.7,0.5l6.2,16.4c0.2,0.4,0,0.7-0.5,0.7h-1.9c-0.3,0-0.6-0.1-0.7-0.5L63,34.3H56.8z
			 M59.9,25.5l-2.2,6.2h4.4L59.9,25.5z"/>
		<path id="XMLID_259_" d="M72.8,32.1l0,6.7c0,0.4-0.2,0.6-0.6,0.6h-1.8c-0.4,0-0.6-0.2-0.6-0.6l0.1-16.4c0-0.4,0.2-0.6,0.6-0.6h6.8
			c3.6,0,5.9,2.1,5.9,5c0,2.4-1.7,4.5-4.4,5.1l4.8,6.7c0.3,0.4,0.1,0.7-0.4,0.7h-2.3c-0.3,0-0.5-0.1-0.7-0.4l-4.6-6.9H72.8z
			 M77,29.6c2.4,0,3.4-0.9,3.4-2.5c0-1.7-1.3-2.8-3.4-2.8h-4.2l0,5.3H77z"/>
		<path id="XMLID_262_" d="M101.8,39.4c-0.4,0-0.6-0.2-0.6-0.6L101,25l-4.2,13.9c-0.1,0.3-0.3,0.5-0.7,0.5h-1.9
			c-0.4,0-0.6-0.2-0.7-0.5l-4.3-14.3l-0.2,14.2c0,0.4-0.2,0.6-0.6,0.6h-1.7c-0.4,0-0.6-0.2-0.6-0.6l0.6-16.4c0-0.4,0.2-0.6,0.6-0.6
			h3.2c0.4,0,0.6,0.2,0.7,0.5l4,12.7l4-12.7c0.1-0.3,0.3-0.5,0.7-0.5h3.1c0.4,0,0.6,0.2,0.6,0.6l0.6,16.4c0,0.4-0.2,0.6-0.6,0.6
			H101.8z"/>
		<path id="XMLID_264_" d="M121.3,31.7c0.1,0,0.1,0,0.1,0.1c0,5.1-3.2,7.7-7.1,7.7c-4.3,0-7.3-3.6-7.3-8.7c0-5.2,3.1-8.7,7.5-8.7
			c2.9,0,5.1,1.5,6.2,3.8c0,0.1,0,0.1-0.1,0.1h-0.2c-0.1,0-0.1,0-0.1-0.1c-1-2.1-3-3.5-5.7-3.5c-4.2,0-7.1,3.4-7.1,8.3
			c0,4.8,2.8,8.3,6.9,8.3c3.5,0,6.6-2.3,6.7-7l-5.1,0c-0.1,0-0.1,0-0.1-0.1v-0.1c0-0.1,0-0.1,0.1-0.1L121.3,31.7z"/>
		<path id="XMLID_266_" d="M126.3,33.3l-2.3,6c0,0.1-0.1,0.1-0.1,0.1h-0.2c-0.1,0-0.1,0-0.1-0.1l6.4-16.9c0-0.1,0-0.1,0.1-0.1h0.4
			c0.1,0,0.1,0,0.1,0.1l6.4,16.9c0,0.1,0,0.1-0.1,0.1h-0.2c-0.1,0-0.1,0-0.1-0.1l-2.3-6H126.3z M130.3,22.7l-3.9,10.2h7.7
			L130.3,22.7z"/>
		<path id="XMLID_269_" d="M147.8,22.5c0,0.1,0,0.1-0.1,0.1h-5.8l0,16.6c0,0.1,0,0.1-0.1,0.1h-0.2c-0.1,0-0.1,0-0.1-0.1l0-16.6h-5.8
			c-0.1,0-0.1,0-0.1-0.1v-0.2c0-0.1,0-0.1,0.1-0.1h12c0.1,0,0.1,0,0.1,0.1V22.5z"/>
		<path id="XMLID_271_" d="M160,39c0.1,0,0.1,0,0.1,0.1v0.2c0,0.1,0,0.1-0.1,0.1h-10c-0.1,0-0.1,0-0.1-0.1l0-16.9
			c0-0.1,0-0.1,0.1-0.1h9.8c0.1,0,0.1,0,0.1,0.1v0.2c0,0.1,0,0.1-0.1,0.1h-9.5v7.4h7.9c0.1,0,0.1,0,0.1,0.1v0.2c0,0.1,0,0.1-0.1,0.1
			h-7.9l0,8.5H160z"/>
		<path id="XMLID_273_" d="M183.9,22.2c0.1,0,0.1,0,0.1,0.1l-5.3,16.9c0,0.1,0,0.1-0.1,0.1h-0.3c-0.1,0-0.1,0-0.1-0.1L173,22.7
			l-5.2,16.6c0,0.1,0,0.1-0.1,0.1h-0.3c-0.1,0-0.1,0-0.1-0.1l-5.3-16.9c0-0.1,0-0.1,0.1-0.1h0.2c0.1,0,0.1,0,0.1,0.1l5.2,16.4h0
			l5.2-16.4c0-0.1,0-0.1,0.1-0.1h0.3c0.1,0,0.1,0,0.1,0.1l5.2,16.4h0l5.2-16.4c0-0.1,0-0.1,0.1-0.1H183.9z"/>
		<path id="XMLID_275_" d="M187.8,33.3l-2.3,6c0,0.1-0.1,0.1-0.1,0.1h-0.2c-0.1,0-0.1,0-0.1-0.1l6.4-16.9c0-0.1,0-0.1,0.1-0.1h0.4
			c0.1,0,0.1,0,0.1,0.1l6.4,16.9c0,0.1,0,0.1-0.1,0.1h-0.2c-0.1,0-0.1,0-0.1-0.1l-2.3-6H187.8z M191.8,22.7l-3.9,10.2h7.7
			L191.8,22.7z"/>
		<path id="XMLID_278_" d="M203.8,39.3c0,0.1,0,0.1-0.1,0.1h-0.2c-0.1,0-0.1,0-0.1-0.1l0-8l-6-8.9c0-0.1,0-0.1,0.1-0.1h0.2
			c0.1,0,0.1,0,0.1,0.1l5.8,8.5h0l5.8-8.5c0,0,0.1-0.1,0.1-0.1h0.1c0.1,0,0.1,0.1,0.1,0.1l-6,8.9L203.8,39.3z"/>
		<path id="XMLID_280_" d="M221.6,39.3c0,0.1,0,0.1-0.1,0.1H221c-0.1,0-0.1,0-0.1-0.1l-4.4-12.1c0-0.1,0-0.1,0.1-0.1h0.2
			c0.1,0,0.1,0,0.1,0.1l4.3,11.8h0.1l4.4-11.8c0-0.1,0-0.1,0.1-0.1h0.2c0.1,0,0.1,0,0.1,0.1L221.6,39.3z"/>
		<path id="XMLID_282_" d="M238.4,34.6c0,3.1-2.1,4.9-5.2,4.9c-2.6,0-4.7-1.4-5.2-3.6c0-0.1,0-0.1,0.1-0.1h0.2c0.1,0,0.1,0,0.1,0.1
			c0.4,2,2.3,3.2,4.8,3.2c3,0,4.7-1.8,4.7-4.5c0-2.4-2.1-4.1-5.3-4.1h-1c-0.1,0-0.1,0-0.1-0.1v-0.2c0-0.1,0-0.1,0.1-0.1h1
			c3,0,4.8-1.5,4.8-3.9c0-2-1.5-3.6-4-3.6c-2.3,0-3.9,1.3-4.6,3.2c0,0.1,0,0.1-0.1,0.1h-0.2c-0.1,0-0.1,0-0.1-0.1
			c0.9-2.2,2.6-3.6,5-3.6c2.7,0,4.5,1.6,4.5,4c0,2.2-1.4,3.6-3.6,4.1C236.7,30.7,238.4,32.3,238.4,34.6z"/>
	</g>
</g>
<g id="XMLID_1_">
	<g id="XMLID_8_">
		<defs>
			<rect id="XMLID_9_" x="201.6" y="166.9" width="41" height="39.8"/>
		</defs>
		<clipPath id="XMLID_290_">
			<use xlink:href="#XMLID_9_"  style="overflow:visible;"/>
		</clipPath>
		<g id="XMLID_10_" class="st1">
			<defs>
				<rect id="XMLID_11_" x="201.6" y="166.9" width="41" height="39.8"/>
			</defs>
			<clipPath id="XMLID_291_">
				<use xlink:href="#XMLID_11_"  style="overflow:visible;"/>
			</clipPath>
			<g id="XMLID_20_" class="st2">
				<path id="XMLID_248_" class="st3" d="M232.6,176v1.4c0,4.1-1.3,6.7-4,8c3.4,1.3,4.7,4.3,4.7,8.5v3.2c0,6.1-3.2,9.4-9.5,9.4h-9.8
					v-39.8h9.4C229.8,166.9,232.6,169.9,232.6,176z M220.1,172.6v10.5h2.4c2.3,0,3.8-1,3.8-4.2v-2.2c0-2.8-1-4.1-3.2-4.1H220.1z
					 M220.1,188.8V201h3.6c2.1,0,3.2-1,3.2-3.9v-3.5c0-3.7-1.2-4.8-4-4.8H220.1z"/>
			</g>
			<g id="XMLID_19_" class="st2">
				<path id="XMLID_246_" class="st4" d="M225.1,171.9c4.8,0,5.9-2.3,6.9-5h4.2v39.8h-6.3v-30.4h-4.8V171.9z"/>
			</g>
			<g id="XMLID_18_" class="st2">
				<path id="XMLID_243_" class="st5" d="M223.2,206.7h-6.3l-1.1-7.2h-7.7l-1.1,7.2h-5.7l6.4-39.8h9.2L223.2,206.7z M208.9,194.1h6
					l-3-20.1L208.9,194.1z"/>
			</g>
			<g id="XMLID_17_" class="st2">
				<path id="XMLID_241_" class="st6" d="M201.6,166.9h6.3V201h10.3v5.7h-16.6V166.9z"/>
			</g>
			<g id="XMLID_16_" class="st2">
				<path id="XMLID_33_" class="st7" d="M231.3,171.9c4.8,0,5.9-2.3,6.9-5h4.2v39.8h-6.3v-30.4h-4.8V171.9z"/>
			</g>
			<path id="XMLID_13_" class="st8" d="M228.5,185.5c3.4,1.3,4.7,4.3,4.7,8.5v3.2c0,6.1-3.2,9.4-9.5,9.4l5.6-11.4l-5.6-11.4
				C223.8,183.9,231.3,184.2,228.5,185.5 M227.7,189.8l1.1,4.2l-1.8-5.5c2.1,0,1.8,4.2,1.8,1.2l0,0.9c0-3.7,1.6-1.8-1.2-1.8
				L227.7,189.8z"/>
			<polygon id="XMLID_12_" class="st9" points="223.1,206.7 216.8,206.7 215.7,199.5 216.8,166.9 			"/>
		</g>
	</g>
</g>
<g id="XMLID_21_">
	<g id="XMLID_22_">
		<defs>
			<polygon id="XMLID_23_" points="8.8,166.9 64.3,167 64.3,206.7 8.8,206.7 			"/>
		</defs>
		<clipPath id="XMLID_292_">
			<use xlink:href="#XMLID_23_"  style="overflow:visible;"/>
		</clipPath>
		<g id="XMLID_24_" class="st10">
			<defs>
				<polygon id="XMLID_25_" points="8.8,227.3 64.3,227.3 64.3,167 8.8,166.9 				"/>
			</defs>
			<clipPath id="XMLID_293_">
				<use xlink:href="#XMLID_25_"  style="overflow:visible;"/>
			</clipPath>
			<polyline id="XMLID_51_" class="st11" points="36.5,199.8 25.2,184.2 25.2,195.5 29.7,195.5 29.7,206.7 8.8,206.7 8.8,195.5 
				13.1,195.5 13.1,178.2 8.8,178.2 8.8,166.9 25.3,167 36.6,182.7 47.9,167 64.3,167 64.3,178.2 60.1,178.2 60.1,195.5 64.3,195.5 
				64.3,206.7 43.4,206.7 43.4,195.5 47.9,195.5 47.9,184.2 36.5,199.8 			"/>
		</g>
	</g>
</g>
<rect id="XMLID_26_" x="8.8" y="124.6" class="st12" width="233.8" height="33.8"/>
<g id="XMLID_27_">
	<rect id="XMLID_239_" x="13" y="130.1" class="st0" width="67.7" height="21.5"/>
	<path id="XMLID_193_" d="M22,131.6l-0.6,0.6c-0.4-0.4-0.9-0.8-1.4-1s-1-0.3-1.5-0.3c-0.6,0-1.2,0.2-1.8,0.5c-0.6,0.3-1,0.7-1.3,1.2
		c-0.3,0.5-0.5,1.1-0.5,1.7c0,0.6,0.2,1.2,0.5,1.7s0.8,1,1.3,1.3c0.6,0.3,1.2,0.5,1.8,0.5c0.8,0,1.5-0.2,2.1-0.7
		c0.6-0.5,0.9-1.1,1-1.8H19v-0.8h3.4c0,1.2-0.4,2.2-1.1,2.9s-1.7,1.1-2.9,1.1c-1.5,0-2.6-0.5-3.5-1.5c-0.7-0.8-1-1.7-1-2.7
		c0-0.7,0.2-1.4,0.6-2.1s0.9-1.1,1.5-1.5s1.4-0.5,2.2-0.5c0.7,0,1.3,0.1,1.9,0.4C20.8,130.7,21.4,131,22,131.6z"/>
	<path id="XMLID_195_" d="M29.6,132.3v5.8h-0.7v-1c-0.3,0.4-0.7,0.7-1.1,0.9c-0.4,0.2-0.8,0.3-1.3,0.3c-0.8,0-1.5-0.3-2.1-0.9
		c-0.6-0.6-0.9-1.3-0.9-2.2c0-0.8,0.3-1.6,0.9-2.2c0.6-0.6,1.3-0.9,2.1-0.9c0.5,0,0.9,0.1,1.3,0.3c0.4,0.2,0.7,0.5,1,0.9v-1.1H29.6z
		 M26.6,132.9c-0.4,0-0.8,0.1-1.2,0.3c-0.4,0.2-0.6,0.5-0.8,0.9s-0.3,0.8-0.3,1.2c0,0.4,0.1,0.8,0.3,1.2c0.2,0.4,0.5,0.7,0.8,0.9
		c0.4,0.2,0.7,0.3,1.1,0.3c0.4,0,0.8-0.1,1.2-0.3c0.4-0.2,0.7-0.5,0.9-0.8c0.2-0.4,0.3-0.8,0.3-1.2c0-0.7-0.2-1.2-0.7-1.7
		S27.3,132.9,26.6,132.9z"/>
	<path id="XMLID_198_" d="M32,130.1h0.8v2.2h1.2v0.7h-1.2v5.2H32V133h-1v-0.7h1V130.1z"/>
	<path id="XMLID_200_" d="M40,136.2l0.6,0.3c-0.2,0.4-0.4,0.7-0.7,1c-0.3,0.2-0.6,0.4-0.9,0.6s-0.7,0.2-1.2,0.2
		c-1,0-1.7-0.3-2.2-0.9c-0.5-0.6-0.8-1.3-0.8-2.1c0-0.7,0.2-1.4,0.7-2c0.6-0.7,1.3-1.1,2.3-1.1c1,0,1.8,0.4,2.4,1.1
		c0.4,0.5,0.6,1.2,0.6,2h-5.3c0,0.7,0.2,1.2,0.7,1.7c0.4,0.4,0.9,0.7,1.6,0.7c0.3,0,0.6-0.1,0.9-0.2c0.3-0.1,0.5-0.2,0.7-0.4
		C39.5,136.9,39.8,136.6,40,136.2z M40,134.6c-0.1-0.4-0.2-0.7-0.4-1c-0.2-0.2-0.4-0.4-0.8-0.6c-0.3-0.1-0.6-0.2-1-0.2
		c-0.6,0-1.1,0.2-1.5,0.6c-0.3,0.3-0.5,0.7-0.7,1.2H40z"/>
	<path id="XMLID_203_" d="M41.4,132.3h0.8l1.8,4.2l1.9-4.2H46l1.9,4.2l1.8-4.2h0.8l-2.5,5.8h-0.1l-1.9-4.2l-1.9,4.2h-0.1L41.4,132.3
		z"/>
	<path id="XMLID_205_" d="M57.2,132.3v5.8h-0.7v-1c-0.3,0.4-0.7,0.7-1.1,0.9c-0.4,0.2-0.8,0.3-1.3,0.3c-0.8,0-1.5-0.3-2.1-0.9
		c-0.6-0.6-0.9-1.3-0.9-2.2c0-0.8,0.3-1.6,0.9-2.2c0.6-0.6,1.3-0.9,2.1-0.9c0.5,0,0.9,0.1,1.3,0.3c0.4,0.2,0.7,0.5,1,0.9v-1.1H57.2z
		 M54.2,132.9c-0.4,0-0.8,0.1-1.2,0.3c-0.4,0.2-0.6,0.5-0.8,0.9s-0.3,0.8-0.3,1.2c0,0.4,0.1,0.8,0.3,1.2c0.2,0.4,0.5,0.7,0.8,0.9
		c0.4,0.2,0.7,0.3,1.1,0.3c0.4,0,0.8-0.1,1.2-0.3c0.4-0.2,0.7-0.5,0.9-0.8c0.2-0.4,0.3-0.8,0.3-1.2c0-0.7-0.2-1.2-0.7-1.7
		S54.8,132.9,54.2,132.9z"/>
	<path id="XMLID_208_" d="M58.2,132.3H59l2,4.5l2-4.5h0.8l-3.5,8h-0.8l1.1-2.6L58.2,132.3z"/>
	<path id="XMLID_210_" d="M67.8,130.3h0.8v7.9h-0.8V130.3z"/>
	<path id="XMLID_212_" d="M70.4,138.2v-7.9h1.6c1.2,0,2,0.1,2.6,0.3c0.8,0.3,1.4,0.7,1.8,1.4s0.6,1.5,0.6,2.4c0,0.8-0.2,1.5-0.5,2.1
		s-0.8,1-1.3,1.3s-1.3,0.4-2.3,0.4H70.4z M71.2,137.4h0.9c1.1,0,1.8-0.1,2.3-0.2c0.6-0.2,1.1-0.5,1.4-1s0.5-1.1,0.5-1.8
		c0-0.8-0.2-1.4-0.6-2s-0.9-0.9-1.5-1.1c-0.5-0.2-1.3-0.2-2.4-0.2h-0.6V137.4z"/>
	<path id="XMLID_215_" d="M79.3,132.2c0.2,0,0.3,0.1,0.5,0.2s0.2,0.3,0.2,0.5s-0.1,0.3-0.2,0.5s-0.3,0.2-0.5,0.2s-0.3-0.1-0.5-0.2
		s-0.2-0.3-0.2-0.5c0-0.2,0.1-0.3,0.2-0.5S79.1,132.2,79.3,132.2z M79.3,137c0.2,0,0.3,0.1,0.5,0.2s0.2,0.3,0.2,0.5
		c0,0.2-0.1,0.3-0.2,0.5s-0.3,0.2-0.5,0.2s-0.3-0.1-0.5-0.2s-0.2-0.3-0.2-0.5c0-0.2,0.1-0.3,0.2-0.5S79.1,137,79.3,137z"/>
	<path id="XMLID_218_" d="M39.7,143.5l3.7,7.9h-0.9l-1.2-2.6h-3.4l-1.2,2.6h-0.9l3.7-7.9H39.7z M39.6,145.1l-1.4,2.9h2.7L39.6,145.1
		z"/>
	<path id="XMLID_221_" d="M50.3,143.3v8.1h-0.7v-1c-0.3,0.4-0.7,0.7-1.1,0.9c-0.4,0.2-0.8,0.3-1.3,0.3c-0.8,0-1.5-0.3-2.1-0.9
		c-0.6-0.6-0.9-1.3-0.9-2.2c0-0.8,0.3-1.6,0.9-2.2c0.6-0.6,1.3-0.9,2.1-0.9c0.5,0,0.9,0.1,1.3,0.3c0.4,0.2,0.7,0.5,1,0.9v-3.3H50.3z
		 M47.3,146.1c-0.4,0-0.8,0.1-1.2,0.3c-0.4,0.2-0.6,0.5-0.8,0.9S45,148,45,148.4c0,0.4,0.1,0.8,0.3,1.2c0.2,0.4,0.5,0.7,0.8,0.9
		c0.4,0.2,0.7,0.3,1.1,0.3c0.4,0,0.8-0.1,1.2-0.3c0.4-0.2,0.7-0.5,0.9-0.8c0.2-0.4,0.3-0.8,0.3-1.2c0-0.7-0.2-1.2-0.7-1.7
		S47.9,146.1,47.3,146.1z"/>
	<path id="XMLID_224_" d="M57.8,143.3v8.1h-0.7v-1c-0.3,0.4-0.7,0.7-1.1,0.9c-0.4,0.2-0.8,0.3-1.3,0.3c-0.8,0-1.5-0.3-2.1-0.9
		c-0.6-0.6-0.9-1.3-0.9-2.2c0-0.8,0.3-1.6,0.9-2.2c0.6-0.6,1.3-0.9,2.1-0.9c0.5,0,0.9,0.1,1.3,0.3c0.4,0.2,0.7,0.5,1,0.9v-3.3H57.8z
		 M54.8,146.1c-0.4,0-0.8,0.1-1.2,0.3c-0.4,0.2-0.6,0.5-0.8,0.9s-0.3,0.8-0.3,1.2c0,0.4,0.1,0.8,0.3,1.2c0.2,0.4,0.5,0.7,0.8,0.9
		c0.4,0.2,0.7,0.3,1.1,0.3c0.4,0,0.8-0.1,1.2-0.3c0.4-0.2,0.7-0.5,0.9-0.8c0.2-0.4,0.3-0.8,0.3-1.2c0-0.7-0.2-1.2-0.7-1.7
		S55.5,146.1,54.8,146.1z"/>
	<path id="XMLID_227_" d="M59.2,145.5H60v0.9c0.2-0.3,0.5-0.6,0.7-0.8c0.3-0.2,0.5-0.2,0.8-0.2c0.2,0,0.4,0.1,0.7,0.2l-0.4,0.6
		c-0.2-0.1-0.3-0.1-0.4-0.1c-0.3,0-0.5,0.1-0.7,0.3c-0.2,0.2-0.4,0.5-0.5,1c-0.1,0.3-0.1,1-0.1,2v2h-0.8V145.5z"/>
	<path id="XMLID_229_" d="M67.7,149.4l0.6,0.3c-0.2,0.4-0.4,0.7-0.7,1c-0.3,0.2-0.6,0.4-0.9,0.6s-0.7,0.2-1.2,0.2
		c-1,0-1.7-0.3-2.2-0.9c-0.5-0.6-0.8-1.3-0.8-2.1c0-0.7,0.2-1.4,0.7-2c0.6-0.7,1.3-1.1,2.3-1.1c1,0,1.8,0.4,2.4,1.1
		c0.4,0.5,0.6,1.2,0.6,2h-5.3c0,0.7,0.2,1.2,0.7,1.7c0.4,0.4,0.9,0.7,1.6,0.7c0.3,0,0.6-0.1,0.9-0.2c0.3-0.1,0.5-0.2,0.7-0.4
		C67.3,150.1,67.5,149.8,67.7,149.4z M67.7,147.8c-0.1-0.4-0.2-0.7-0.4-1c-0.2-0.2-0.4-0.4-0.8-0.6c-0.3-0.1-0.6-0.2-1-0.2
		c-0.6,0-1.1,0.2-1.5,0.6c-0.3,0.3-0.5,0.7-0.7,1.2H67.7z"/>
	<path id="XMLID_232_" d="M72.9,146.1l-0.5,0.5c-0.4-0.4-0.8-0.6-1.2-0.6c-0.2,0-0.5,0.1-0.6,0.2c-0.2,0.2-0.3,0.3-0.3,0.6
		c0,0.2,0.1,0.4,0.2,0.5c0.1,0.2,0.4,0.4,0.9,0.6c0.6,0.3,0.9,0.6,1.1,0.8c0.2,0.3,0.3,0.6,0.3,0.9c0,0.5-0.2,0.9-0.5,1.2
		c-0.3,0.3-0.8,0.5-1.3,0.5c-0.3,0-0.7-0.1-1-0.2c-0.3-0.1-0.6-0.3-0.8-0.6l0.5-0.5c0.4,0.4,0.8,0.6,1.2,0.6c0.3,0,0.6-0.1,0.8-0.3
		s0.3-0.4,0.3-0.7c0-0.2-0.1-0.4-0.2-0.6c-0.1-0.2-0.5-0.4-0.9-0.6c-0.5-0.3-0.9-0.5-1.1-0.8c-0.2-0.3-0.3-0.6-0.3-0.9
		c0-0.4,0.2-0.8,0.5-1.1c0.3-0.3,0.7-0.4,1.1-0.4C71.8,145.4,72.3,145.6,72.9,146.1z"/>
	<path id="XMLID_234_" d="M77.1,146.1l-0.5,0.5c-0.4-0.4-0.8-0.6-1.2-0.6c-0.2,0-0.5,0.1-0.6,0.2c-0.2,0.2-0.3,0.3-0.3,0.6
		c0,0.2,0.1,0.4,0.2,0.5c0.1,0.2,0.4,0.4,0.9,0.6c0.6,0.3,0.9,0.6,1.1,0.8c0.2,0.3,0.3,0.6,0.3,0.9c0,0.5-0.2,0.9-0.5,1.2
		c-0.3,0.3-0.8,0.5-1.3,0.5c-0.3,0-0.7-0.1-1-0.2c-0.3-0.1-0.6-0.3-0.8-0.6l0.5-0.5c0.4,0.4,0.8,0.6,1.2,0.6c0.3,0,0.6-0.1,0.8-0.3
		s0.3-0.4,0.3-0.7c0-0.2-0.1-0.4-0.2-0.6c-0.1-0.2-0.5-0.4-0.9-0.6c-0.5-0.3-0.9-0.5-1.1-0.8c-0.2-0.3-0.3-0.6-0.3-0.9
		c0-0.4,0.2-0.8,0.5-1.1c0.3-0.3,0.7-0.4,1.1-0.4C76.1,145.4,76.6,145.6,77.1,146.1z"/>
	<path id="XMLID_236_" d="M79.3,145.4c0.2,0,0.3,0.1,0.5,0.2s0.2,0.3,0.2,0.5s-0.1,0.3-0.2,0.5s-0.3,0.2-0.5,0.2s-0.3-0.1-0.5-0.2
		s-0.2-0.3-0.2-0.5c0-0.2,0.1-0.3,0.2-0.5S79.1,145.4,79.3,145.4z M79.3,150.2c0.2,0,0.3,0.1,0.5,0.2s0.2,0.3,0.2,0.5
		c0,0.2-0.1,0.3-0.2,0.5s-0.3,0.2-0.5,0.2s-0.3-0.1-0.5-0.2s-0.2-0.3-0.2-0.5c0-0.2,0.1-0.3,0.2-0.5S79.1,150.2,79.3,150.2z"/>
</g>
<g id="XMLID_29_">
	<path id="XMLID_37_" d="M32.6,65.1h0.8v3.3c0.3-0.4,0.6-0.7,1-0.9c0.4-0.2,0.8-0.3,1.2-0.3c0.4,0,0.8,0.1,1.2,0.3
		c0.3,0.2,0.6,0.5,0.7,0.9c0.2,0.4,0.2,1,0.2,1.8v3h-0.8v-2.8c0-0.7,0-1.1-0.1-1.3c-0.1-0.4-0.3-0.7-0.5-0.9c-0.2-0.2-0.6-0.3-1-0.3
		c-0.5,0-0.9,0.2-1.2,0.5c-0.4,0.3-0.6,0.7-0.7,1.1c-0.1,0.3-0.1,0.8-0.1,1.6v2.1h-0.8V65.1z"/>
	<path id="XMLID_119_" d="M40,65.2h0.8v2.2h1.2V68h-1.2v5.2H40V68h-1v-0.6h1V65.2z"/>
	<path id="XMLID_121_" d="M43.7,65.2h0.8v2.2h1.2V68h-1.2v5.2h-0.8V68h-1v-0.6h1V65.2z"/>
	<path id="XMLID_123_" d="M46.8,67.3h0.8v1.1c0.3-0.4,0.6-0.7,1-0.9s0.8-0.3,1.3-0.3c0.8,0,1.5,0.3,2.1,0.9s0.9,1.3,0.9,2.2
		c0,0.9-0.3,1.6-0.9,2.2c-0.6,0.6-1.3,0.9-2.1,0.9c-0.5,0-0.9-0.1-1.3-0.3c-0.4-0.2-0.7-0.5-1.1-0.9v3.1h-0.8V67.3z M49.8,67.9
		c-0.7,0-1.2,0.2-1.6,0.7c-0.4,0.5-0.7,1-0.7,1.7c0,0.4,0.1,0.8,0.3,1.2s0.5,0.6,0.9,0.8s0.8,0.3,1.2,0.3c0.4,0,0.8-0.1,1.1-0.3
		c0.4-0.2,0.6-0.5,0.8-0.9c0.2-0.4,0.3-0.8,0.3-1.2c0-0.4-0.1-0.8-0.3-1.2c-0.2-0.4-0.5-0.7-0.8-0.9C50.6,68,50.2,67.9,49.8,67.9z"
		/>
	<path id="XMLID_126_" d="M57.2,68l-0.5,0.5c-0.4-0.4-0.8-0.6-1.2-0.6c-0.2,0-0.5,0.1-0.6,0.2c-0.2,0.2-0.3,0.3-0.3,0.6
		c0,0.2,0.1,0.4,0.2,0.5c0.1,0.2,0.4,0.4,0.9,0.6c0.6,0.3,0.9,0.6,1.1,0.8c0.2,0.3,0.3,0.6,0.3,0.9c0,0.5-0.2,0.9-0.5,1.2
		c-0.3,0.3-0.8,0.5-1.3,0.5c-0.3,0-0.7-0.1-1-0.2s-0.6-0.3-0.8-0.6l0.5-0.5c0.4,0.4,0.8,0.6,1.2,0.6c0.3,0,0.6-0.1,0.8-0.3
		c0.2-0.2,0.3-0.4,0.3-0.7c0-0.2-0.1-0.4-0.2-0.6c-0.1-0.2-0.5-0.4-0.9-0.6c-0.5-0.3-0.9-0.5-1.1-0.8c-0.2-0.3-0.3-0.6-0.3-0.9
		c0-0.4,0.2-0.8,0.5-1.1s0.7-0.4,1.1-0.4C56.1,67.2,56.7,67.5,57.2,68z"/>
	<path id="XMLID_128_" d="M59.4,67.2c0.2,0,0.3,0.1,0.5,0.2s0.2,0.3,0.2,0.5s-0.1,0.3-0.2,0.5s-0.3,0.2-0.5,0.2s-0.3-0.1-0.5-0.2
		s-0.2-0.3-0.2-0.5c0-0.2,0.1-0.3,0.2-0.5C59,67.3,59.2,67.2,59.4,67.2z M59.4,72c0.2,0,0.3,0.1,0.5,0.2s0.2,0.3,0.2,0.5
		c0,0.2-0.1,0.3-0.2,0.5c-0.1,0.1-0.3,0.2-0.5,0.2s-0.3-0.1-0.5-0.2c-0.1-0.1-0.2-0.3-0.2-0.5c0-0.2,0.1-0.3,0.2-0.5
		S59.2,72,59.4,72z"/>
	<path id="XMLID_131_" d="M65.2,65.1l-3.3,9.2h-0.8l3.3-9.2H65.2z"/>
	<path id="XMLID_133_" d="M70,65.1l-3.3,9.2h-0.8l3.3-9.2H70z"/>
	<path id="XMLID_135_" d="M76.2,67.3H77V72c0,0.8-0.1,1.4-0.2,1.8c-0.2,0.5-0.5,1-1,1.2s-1.1,0.4-1.8,0.4c-0.5,0-1-0.1-1.4-0.2
		c-0.4-0.1-0.7-0.3-1-0.6s-0.5-0.6-0.7-1h0.8c0.2,0.4,0.5,0.7,0.9,0.9c0.4,0.2,0.8,0.3,1.3,0.3c0.5,0,0.9-0.1,1.3-0.3
		c0.4-0.2,0.6-0.4,0.8-0.7c0.2-0.3,0.2-0.8,0.2-1.4v-0.3c-0.3,0.4-0.6,0.6-1,0.8c-0.4,0.2-0.8,0.3-1.3,0.3c-0.5,0-1-0.1-1.5-0.4
		c-0.5-0.3-0.8-0.6-1.1-1.1c-0.3-0.5-0.4-0.9-0.4-1.5s0.1-1,0.4-1.5c0.3-0.5,0.6-0.8,1.1-1.1c0.5-0.3,1-0.4,1.5-0.4
		c0.4,0,0.8,0.1,1.2,0.3c0.4,0.2,0.7,0.5,1.1,0.9V67.3z M74,67.9c-0.4,0-0.8,0.1-1.2,0.3c-0.4,0.2-0.7,0.5-0.9,0.9
		c-0.2,0.4-0.3,0.8-0.3,1.2c0,0.6,0.2,1.2,0.6,1.6s1,0.6,1.7,0.6c0.7,0,1.2-0.2,1.7-0.6c0.4-0.4,0.6-1,0.6-1.6
		c0-0.4-0.1-0.8-0.3-1.2c-0.2-0.3-0.5-0.6-0.8-0.8S74.4,67.9,74,67.9z"/>
	<path id="XMLID_138_" d="M78.9,64.9c0.2,0,0.3,0.1,0.4,0.2c0.1,0.1,0.2,0.3,0.2,0.4c0,0.2-0.1,0.3-0.2,0.4
		c-0.1,0.1-0.3,0.2-0.4,0.2c-0.2,0-0.3-0.1-0.4-0.2s-0.2-0.3-0.2-0.4c0-0.2,0.1-0.3,0.2-0.4S78.7,64.9,78.9,64.9z M78.5,67.3h0.8
		v5.8h-0.8V67.3z"/>
	<path id="XMLID_141_" d="M81.5,65.2h0.8v2.2h1.2V68h-1.2v5.2h-0.8V68h-1v-0.6h1V65.2z"/>
	<path id="XMLID_143_" d="M84.5,65.1h0.8v3.3c0.3-0.4,0.6-0.7,1-0.9c0.4-0.2,0.8-0.3,1.2-0.3c0.4,0,0.8,0.1,1.2,0.3
		c0.3,0.2,0.6,0.5,0.7,0.9c0.2,0.4,0.2,1,0.2,1.8v3h-0.8v-2.8c0-0.7,0-1.1-0.1-1.3c-0.1-0.4-0.3-0.7-0.5-0.9c-0.2-0.2-0.6-0.3-1-0.3
		c-0.5,0-0.9,0.2-1.2,0.5c-0.4,0.3-0.6,0.7-0.7,1.1c-0.1,0.3-0.1,0.8-0.1,1.6v2.1h-0.8V65.1z"/>
	<path id="XMLID_145_" d="M91.1,67.3h0.8v2.7c0,0.7,0,1.1,0.1,1.4c0.1,0.4,0.3,0.6,0.6,0.8c0.3,0.2,0.7,0.3,1.1,0.3
		c0.4,0,0.8-0.1,1.1-0.3c0.3-0.2,0.5-0.5,0.6-0.8c0.1-0.2,0.1-0.7,0.1-1.4v-2.7h0.8v2.9c0,0.8-0.1,1.4-0.3,1.8
		c-0.2,0.4-0.5,0.7-0.8,1c-0.4,0.2-0.9,0.3-1.4,0.3s-1-0.1-1.4-0.3c-0.4-0.2-0.7-0.6-0.9-1c-0.2-0.4-0.3-1-0.3-1.9V67.3z"/>
	<path id="XMLID_147_" d="M98,73.2v-8.1h0.8v3.3c0.3-0.4,0.7-0.7,1.1-0.9c0.4-0.2,0.8-0.3,1.3-0.3c0.8,0,1.5,0.3,2.1,0.9
		c0.6,0.6,0.9,1.3,0.9,2.2c0,0.8-0.3,1.6-0.9,2.2s-1.3,0.9-2.1,0.9c-0.5,0-0.9-0.1-1.3-0.3s-0.7-0.5-1-0.9v1.1H98z M101,72.6
		c0.4,0,0.8-0.1,1.2-0.3c0.4-0.2,0.6-0.5,0.8-0.9s0.3-0.8,0.3-1.2s-0.1-0.8-0.3-1.2c-0.2-0.4-0.5-0.7-0.8-0.9
		c-0.4-0.2-0.7-0.3-1.1-0.3c-0.4,0-0.8,0.1-1.2,0.3c-0.4,0.2-0.7,0.5-0.9,0.8s-0.3,0.8-0.3,1.2c0,0.7,0.2,1.2,0.7,1.7
		S100.3,72.6,101,72.6z"/>
	<path id="XMLID_150_" d="M106.2,72c0.2,0,0.3,0.1,0.5,0.2s0.2,0.3,0.2,0.5c0,0.2-0.1,0.3-0.2,0.5c-0.1,0.1-0.3,0.2-0.5,0.2
		s-0.3-0.1-0.5-0.2c-0.1-0.1-0.2-0.3-0.2-0.5c0-0.2,0.1-0.3,0.2-0.5S106.1,72,106.2,72z"/>
	<path id="XMLID_152_" d="M114.1,68.6l-0.6,0.4c-0.5-0.7-1.2-1-2.1-1c-0.7,0-1.3,0.2-1.8,0.7c-0.5,0.5-0.7,1-0.7,1.7
		c0,0.4,0.1,0.8,0.3,1.2s0.5,0.7,0.9,0.9c0.4,0.2,0.8,0.3,1.3,0.3c0.9,0,1.6-0.3,2.1-1l0.6,0.4c-0.3,0.4-0.7,0.7-1.1,1
		c-0.5,0.2-1,0.3-1.6,0.3c-0.9,0-1.7-0.3-2.3-0.9s-0.9-1.3-0.9-2.1c0-0.6,0.1-1.1,0.4-1.6c0.3-0.5,0.7-0.9,1.2-1.1s1.1-0.4,1.7-0.4
		c0.4,0,0.8,0.1,1.1,0.2c0.4,0.1,0.7,0.3,0.9,0.5S114,68.3,114.1,68.6z"/>
	<path id="XMLID_154_" d="M118.4,67.2c0.9,0,1.6,0.3,2.2,1c0.5,0.6,0.8,1.3,0.8,2.1c0,0.8-0.3,1.5-0.9,2.1c-0.6,0.6-1.3,0.9-2.2,0.9
		c-0.9,0-1.6-0.3-2.2-0.9c-0.6-0.6-0.9-1.3-0.9-2.1c0-0.8,0.3-1.5,0.8-2.1C116.7,67.5,117.4,67.2,118.4,67.2z M118.3,67.9
		c-0.6,0-1.2,0.2-1.6,0.7s-0.7,1-0.7,1.7c0,0.4,0.1,0.8,0.3,1.2c0.2,0.4,0.5,0.6,0.8,0.8c0.3,0.2,0.7,0.3,1.1,0.3
		c0.4,0,0.8-0.1,1.1-0.3c0.3-0.2,0.6-0.5,0.8-0.8c0.2-0.4,0.3-0.8,0.3-1.2c0-0.7-0.2-1.2-0.7-1.7C119.5,68.2,119,67.9,118.3,67.9z"
		/>
	<path id="XMLID_157_" d="M122.8,67.3h0.8v1c0.3-0.4,0.5-0.6,0.8-0.8c0.4-0.2,0.8-0.3,1.2-0.3c0.3,0,0.6,0.1,0.8,0.2
		c0.3,0.1,0.5,0.3,0.6,0.4c0.2,0.2,0.3,0.4,0.4,0.8c0.2-0.5,0.6-0.8,0.9-1c0.4-0.2,0.8-0.4,1.2-0.4c0.4,0,0.8,0.1,1.1,0.3
		c0.3,0.2,0.5,0.5,0.7,0.9c0.2,0.4,0.2,0.9,0.2,1.6v3.2h-0.8V70c0-0.6,0-1.1-0.1-1.3c-0.1-0.2-0.2-0.4-0.5-0.6
		c-0.2-0.1-0.5-0.2-0.8-0.2c-0.4,0-0.7,0.1-1,0.3s-0.5,0.5-0.7,0.9c-0.1,0.4-0.2,1-0.2,1.8v2.3h-0.8v-3c0-0.7,0-1.2-0.1-1.4
		c-0.1-0.3-0.2-0.5-0.5-0.6c-0.2-0.2-0.5-0.2-0.8-0.2c-0.3,0-0.7,0.1-1,0.3c-0.3,0.2-0.5,0.5-0.7,0.8c-0.1,0.4-0.2,0.9-0.2,1.6v2.5
		h-0.8V67.3z"/>
	<path id="XMLID_159_" d="M136.8,65.1l-3.3,9.2h-0.8l3.3-9.2H136.8z"/>
	<path id="XMLID_161_" d="M137.8,65.1h0.8v8.1h-0.8V65.1z"/>
	<path id="XMLID_163_" d="M145.9,67.3v5.8h-0.7v-1c-0.3,0.4-0.7,0.7-1.1,0.9c-0.4,0.2-0.8,0.3-1.3,0.3c-0.8,0-1.5-0.3-2.1-0.9
		c-0.6-0.6-0.9-1.3-0.9-2.2c0-0.8,0.3-1.6,0.9-2.2s1.3-0.9,2.1-0.9c0.5,0,0.9,0.1,1.3,0.3s0.7,0.5,1,0.9v-1.1H145.9z M142.9,67.9
		c-0.4,0-0.8,0.1-1.2,0.3c-0.4,0.2-0.6,0.5-0.8,0.9c-0.2,0.4-0.3,0.8-0.3,1.2c0,0.4,0.1,0.8,0.3,1.2s0.5,0.7,0.9,0.9
		c0.4,0.2,0.7,0.3,1.1,0.3c0.4,0,0.8-0.1,1.2-0.3c0.4-0.2,0.7-0.5,0.8-0.8c0.2-0.4,0.3-0.8,0.3-1.2c0-0.7-0.2-1.2-0.7-1.7
		C144.1,68.1,143.6,67.9,142.9,67.9z"/>
	<path id="XMLID_166_" d="M147.7,73.2v-8.1h0.8v3.3c0.3-0.4,0.7-0.7,1.1-0.9c0.4-0.2,0.8-0.3,1.3-0.3c0.8,0,1.5,0.3,2.1,0.9
		c0.6,0.6,0.9,1.3,0.9,2.2c0,0.8-0.3,1.6-0.9,2.2c-0.6,0.6-1.3,0.9-2.1,0.9c-0.5,0-0.9-0.1-1.3-0.3c-0.4-0.2-0.7-0.5-1-0.9v1.1
		H147.7z M150.7,72.6c0.4,0,0.8-0.1,1.2-0.3c0.4-0.2,0.6-0.5,0.8-0.9s0.3-0.8,0.3-1.2s-0.1-0.8-0.3-1.2c-0.2-0.4-0.5-0.7-0.8-0.9
		c-0.4-0.2-0.7-0.3-1.1-0.3c-0.4,0-0.8,0.1-1.2,0.3c-0.4,0.2-0.7,0.5-0.9,0.8s-0.3,0.8-0.3,1.2c0,0.7,0.2,1.2,0.7,1.7
		C149.5,72.4,150,72.6,150.7,72.6z"/>
	<path id="XMLID_169_" d="M156.3,65.3h1.6v7.9h-0.8v-7.1h-1.2L156.3,65.3z"/>
	<path id="XMLID_171_" d="M162.4,65.3h1.6v7.9h-0.8v-7.1H162L162.4,65.3z"/>
	<path id="XMLID_173_" d="M171,65.1l-3.3,9.2h-0.8l3.3-9.2H171z"/>
	<path id="XMLID_175_" d="M177.2,67.3h0.8V72c0,0.8-0.1,1.4-0.2,1.8c-0.2,0.5-0.5,1-1,1.2c-0.5,0.3-1.1,0.4-1.8,0.4
		c-0.5,0-1-0.1-1.4-0.2c-0.4-0.1-0.7-0.3-1-0.6c-0.2-0.2-0.5-0.6-0.7-1h0.8c0.2,0.4,0.5,0.7,0.9,0.9s0.8,0.3,1.3,0.3
		c0.5,0,0.9-0.1,1.3-0.3c0.4-0.2,0.6-0.4,0.8-0.7s0.2-0.8,0.2-1.4v-0.3c-0.3,0.4-0.6,0.6-1,0.8c-0.4,0.2-0.8,0.3-1.3,0.3
		c-0.5,0-1-0.1-1.5-0.4c-0.5-0.3-0.8-0.6-1.1-1.1c-0.3-0.5-0.4-0.9-0.4-1.5s0.1-1,0.4-1.5c0.3-0.5,0.6-0.8,1.1-1.1
		c0.5-0.3,1-0.4,1.5-0.4c0.4,0,0.8,0.1,1.2,0.3c0.4,0.2,0.7,0.5,1.1,0.9V67.3z M175,67.9c-0.4,0-0.8,0.1-1.2,0.3
		c-0.4,0.2-0.7,0.5-0.9,0.9c-0.2,0.4-0.3,0.8-0.3,1.2c0,0.6,0.2,1.2,0.6,1.6s1,0.6,1.7,0.6c0.7,0,1.2-0.2,1.7-0.6s0.6-1,0.6-1.6
		c0-0.4-0.1-0.8-0.3-1.2c-0.2-0.3-0.5-0.6-0.8-0.8S175.4,67.9,175,67.9z"/>
	<path id="XMLID_178_" d="M185.4,67.3v5.8h-0.7v-1c-0.3,0.4-0.7,0.7-1.1,0.9c-0.4,0.2-0.8,0.3-1.3,0.3c-0.8,0-1.5-0.3-2.1-0.9
		c-0.6-0.6-0.9-1.3-0.9-2.2c0-0.8,0.3-1.6,0.9-2.2s1.3-0.9,2.1-0.9c0.5,0,0.9,0.1,1.3,0.3s0.7,0.5,1,0.9v-1.1H185.4z M182.3,67.9
		c-0.4,0-0.8,0.1-1.2,0.3s-0.6,0.5-0.8,0.9c-0.2,0.4-0.3,0.8-0.3,1.2c0,0.4,0.1,0.8,0.3,1.2s0.5,0.7,0.8,0.9
		c0.4,0.2,0.7,0.3,1.1,0.3c0.4,0,0.8-0.1,1.2-0.3s0.7-0.5,0.9-0.8c0.2-0.4,0.3-0.8,0.3-1.2c0-0.7-0.2-1.2-0.7-1.7
		C183.5,68.1,183,67.9,182.3,67.9z"/>
	<path id="XMLID_181_" d="M187.7,65.2h0.8v2.2h1.2V68h-1.2v5.2h-0.8V68h-1v-0.6h1V65.2z"/>
	<path id="XMLID_183_" d="M195.7,71.2l0.6,0.3c-0.2,0.4-0.4,0.7-0.7,1s-0.6,0.4-0.9,0.6c-0.3,0.1-0.7,0.2-1.2,0.2
		c-1,0-1.7-0.3-2.2-0.9c-0.5-0.6-0.8-1.3-0.8-2.1c0-0.7,0.2-1.4,0.7-2c0.6-0.7,1.3-1.1,2.3-1.1c1,0,1.8,0.4,2.4,1.1
		c0.4,0.5,0.6,1.2,0.6,2h-5.3c0,0.7,0.2,1.2,0.7,1.7c0.4,0.4,0.9,0.7,1.6,0.7c0.3,0,0.6-0.1,0.9-0.2c0.3-0.1,0.5-0.2,0.7-0.4
		C195.3,71.9,195.5,71.6,195.7,71.2z M195.7,69.7c-0.1-0.4-0.2-0.7-0.4-1c-0.2-0.2-0.4-0.4-0.8-0.6s-0.6-0.2-1-0.2
		c-0.6,0-1.1,0.2-1.5,0.6c-0.3,0.3-0.5,0.7-0.7,1.2H195.7z"/>
	<path id="XMLID_186_" d="M197.1,67.3h0.8l1.8,4.2l1.9-4.2h0.1l1.9,4.2l1.8-4.2h0.8l-2.5,5.8h-0.1l-1.9-4.2l-1.9,4.2h-0.1
		L197.1,67.3z"/>
	<path id="XMLID_188_" d="M212.9,67.3v5.8h-0.7v-1c-0.3,0.4-0.7,0.7-1.1,0.9c-0.4,0.2-0.8,0.3-1.3,0.3c-0.8,0-1.5-0.3-2.1-0.9
		c-0.6-0.6-0.9-1.3-0.9-2.2c0-0.8,0.3-1.6,0.9-2.2s1.3-0.9,2.1-0.9c0.5,0,0.9,0.1,1.3,0.3s0.7,0.5,1,0.9v-1.1H212.9z M209.9,67.9
		c-0.4,0-0.8,0.1-1.2,0.3s-0.6,0.5-0.8,0.9c-0.2,0.4-0.3,0.8-0.3,1.2c0,0.4,0.1,0.8,0.3,1.2s0.5,0.7,0.8,0.9
		c0.4,0.2,0.7,0.3,1.1,0.3c0.4,0,0.8-0.1,1.2-0.3s0.7-0.5,0.9-0.8c0.2-0.4,0.3-0.8,0.3-1.2c0-0.7-0.2-1.2-0.7-1.7
		C211.1,68.1,210.5,67.9,209.9,67.9z"/>
	<path id="XMLID_191_" d="M214,67.3h0.8l2,4.5l2-4.5h0.8l-3.5,8h-0.8l1.1-2.6L214,67.3z"/>
</g>
<line id="XMLID_30_" class="st13" x1="0" y1="60.6" x2="252" y2="60.6"/>
<line id="XMLID_31_" class="st13" x1="0" y1="78.3" x2="252" y2="78.3"/>
<g id="XMLID_32_">
	<rect id="XMLID_117_" x="8.8" y="90.4" class="st0" width="233.8" height="21.5"/>
	<path id="XMLID_38_" class="st14" d="M54.8,90.6h1.6c0.6,0,1.1,0.1,1.4,0.2c0.3,0.1,0.6,0.4,0.8,0.7c0.2,0.3,0.3,0.6,0.3,1
		c0,0.4-0.1,0.7-0.3,1c-0.2,0.3-0.4,0.5-0.8,0.7c0.4,0.1,0.7,0.3,0.9,0.5c0.2,0.2,0.4,0.4,0.5,0.7c0.1,0.3,0.2,0.6,0.2,0.9
		c0,0.6-0.2,1.2-0.7,1.6c-0.5,0.4-1.1,0.7-1.9,0.7h-2.2V90.6z M55.6,91.3v2.5H56c0.5,0,1-0.1,1.2-0.2c0.3-0.1,0.5-0.3,0.6-0.5
		c0.2-0.2,0.2-0.5,0.2-0.7c0-0.4-0.1-0.6-0.4-0.9c-0.3-0.2-0.7-0.3-1.2-0.3H55.6z M55.6,94.6v3h1c0.6,0,1-0.1,1.3-0.2
		c0.3-0.1,0.5-0.3,0.6-0.5c0.2-0.2,0.2-0.5,0.2-0.8c0-0.4-0.1-0.7-0.3-0.9s-0.5-0.4-0.9-0.5c-0.3-0.1-0.7-0.1-1.4-0.1H55.6z"/>
	<path id="XMLID_42_" class="st14" d="M61.1,90.6h0.8v7.1h3v0.8h-3.8V90.6z"/>
	<path id="XMLID_44_" class="st14" d="M66.2,90.6h4.5v0.8H67v2.5h3.7v0.8H67v3.1h3.7v0.8h-4.5V90.6z"/>
	<path id="XMLID_46_" class="st14" d="M77.5,92.8c0.5,0,0.8,0.2,1.2,0.5s0.5,0.7,0.5,1.2c0,0.5-0.2,0.8-0.5,1.2s-0.7,0.5-1.2,0.5
		s-0.8-0.2-1.2-0.5s-0.5-0.7-0.5-1.2c0-0.5,0.2-0.8,0.5-1.2S77,92.8,77.5,92.8z"/>
	<path id="XMLID_48_" class="st14" d="M88.1,94.1c0.5,0.3,0.9,0.6,1.1,0.9c0.2,0.3,0.3,0.7,0.3,1.2c0,0.6-0.2,1.1-0.6,1.6
		c-0.5,0.6-1.2,0.9-2.1,0.9c-0.9,0-1.5-0.2-2-0.7c-0.5-0.5-0.7-1-0.7-1.7c0-0.4,0.1-0.8,0.4-1.2c0.2-0.4,0.6-0.7,1.2-0.9
		c-0.4-0.2-0.7-0.4-0.9-0.7s-0.3-0.6-0.3-1c0-0.3,0.1-0.7,0.3-1c0.2-0.3,0.5-0.6,0.9-0.8c0.4-0.2,0.8-0.3,1.2-0.3
		c0.4,0,0.8,0.1,1.1,0.3s0.6,0.4,0.8,0.8c0.2,0.3,0.3,0.7,0.3,1s-0.1,0.7-0.3,1C88.7,93.7,88.5,93.9,88.1,94.1z M86.9,94.5
		c-0.5,0-1,0.2-1.4,0.5c-0.4,0.4-0.6,0.8-0.6,1.2c0,0.3,0.1,0.6,0.2,0.8s0.4,0.5,0.7,0.6c0.3,0.1,0.6,0.2,1,0.2c0.6,0,1-0.2,1.4-0.5
		c0.3-0.3,0.5-0.7,0.5-1.2c0-0.4-0.2-0.8-0.5-1.2C87.9,94.7,87.5,94.5,86.9,94.5z M86.9,91.1c-0.4,0-0.8,0.1-1.1,0.4
		c-0.3,0.3-0.4,0.6-0.4,0.9c0,0.4,0.2,0.7,0.5,1c0.3,0.3,0.7,0.4,1.1,0.4c0.3,0,0.5-0.1,0.7-0.2c0.2-0.1,0.4-0.3,0.5-0.5
		c0.1-0.2,0.2-0.4,0.2-0.7c0-0.3-0.1-0.6-0.4-0.9C87.8,91.3,87.4,91.1,86.9,91.1z"/>
	<path id="XMLID_53_" class="st14" d="M90.3,94.5c0-1,0.1-1.8,0.3-2.4c0.2-0.6,0.5-1,0.9-1.3s0.9-0.4,1.4-0.4c0.5,0,1,0.1,1.4,0.4
		c0.4,0.3,0.7,0.7,1,1.3c0.2,0.6,0.4,1.4,0.4,2.4c0,1-0.1,1.8-0.4,2.4c-0.2,0.6-0.6,1-1,1.3c-0.4,0.3-0.9,0.4-1.4,0.4
		c-0.5,0-1-0.1-1.4-0.4s-0.7-0.7-0.9-1.3C90.4,96.3,90.3,95.5,90.3,94.5z M91.1,94.5c0,0.9,0.1,1.6,0.2,2c0.2,0.5,0.4,0.8,0.7,1
		c0.3,0.2,0.6,0.4,1,0.4c0.4,0,0.7-0.1,1-0.3s0.5-0.6,0.7-1c0.2-0.6,0.3-1.2,0.3-2c0-0.8-0.1-1.4-0.3-2c-0.2-0.5-0.4-0.9-0.7-1.1
		c-0.3-0.2-0.6-0.4-1-0.4c-0.4,0-0.7,0.1-1,0.4s-0.5,0.6-0.7,1C91.1,92.9,91.1,93.6,91.1,94.5z"/>
	<path id="XMLID_56_" class="st14" d="M97.3,93h-0.8c0-0.8,0.3-1.4,0.8-1.9c0.5-0.5,1.1-0.8,1.9-0.8c0.7,0,1.3,0.2,1.8,0.7
		c0.4,0.5,0.7,1,0.7,1.7c0,0.4-0.1,0.9-0.3,1.3c-0.2,0.4-0.6,0.9-1.2,1.6l-2,2.1h3.6v0.8h-5.4l3-3.3c0.6-0.7,1-1.1,1.2-1.5
		c0.2-0.3,0.3-0.7,0.3-1c0-0.4-0.2-0.8-0.5-1.1c-0.3-0.3-0.7-0.5-1.2-0.5c-0.5,0-0.9,0.2-1.3,0.5C97.6,91.9,97.4,92.4,97.3,93z"/>
	<path id="XMLID_59_" class="st14" d="M103.8,97.3c0.2,0,0.3,0.1,0.5,0.2s0.2,0.3,0.2,0.5c0,0.2-0.1,0.3-0.2,0.5
		c-0.1,0.1-0.3,0.2-0.5,0.2s-0.3-0.1-0.5-0.2c-0.1-0.1-0.2-0.3-0.2-0.5c0-0.2,0.1-0.3,0.2-0.5S103.6,97.3,103.8,97.3z"/>
	<path id="XMLID_61_" class="st14" d="M107.2,90.6h1.6v7.9H108v-7.1h-1.2L107.2,90.6z"/>
	<path id="XMLID_63_" class="st14" d="M116.7,90.6v0.8h-2.8l-0.4,2.2c0.3-0.1,0.7-0.2,0.9-0.2c0.7,0,1.3,0.2,1.8,0.7
		c0.5,0.5,0.7,1.1,0.7,1.9c0,0.5-0.1,1-0.4,1.4s-0.6,0.8-1,1c-0.4,0.2-0.9,0.3-1.4,0.3c-0.6,0-1.2-0.2-1.6-0.6
		c-0.4-0.4-0.7-0.9-0.8-1.5h0.8c0.1,0.3,0.2,0.6,0.3,0.7c0.1,0.2,0.3,0.3,0.6,0.5c0.2,0.1,0.5,0.2,0.8,0.2c0.5,0,1-0.2,1.3-0.6
		c0.4-0.4,0.6-0.9,0.6-1.5c0-0.5-0.2-1-0.5-1.3s-0.8-0.5-1.3-0.5c-0.5,0-1,0.1-1.7,0.4l0.7-3.9H116.7z"/>
	<path id="XMLID_65_" class="st14" d="M119.1,97.3c0.2,0,0.3,0.1,0.5,0.2s0.2,0.3,0.2,0.5c0,0.2-0.1,0.3-0.2,0.5
		c-0.1,0.1-0.3,0.2-0.5,0.2s-0.3-0.1-0.5-0.2c-0.1-0.1-0.2-0.3-0.2-0.5c0-0.2,0.1-0.3,0.2-0.5S118.9,97.3,119.1,97.3z"/>
	<path id="XMLID_67_" class="st14" d="M125.1,90.4h0.2v5.5h1v0.8h-1v1.8h-0.8v-1.8h-3.8L125.1,90.4z M124.5,95.9v-3.3l-2.3,3.3
		H124.5z"/>
	<path id="XMLID_70_" class="st14" d="M132.9,92.8c0.5,0,0.8,0.2,1.2,0.5s0.5,0.7,0.5,1.2c0,0.5-0.2,0.8-0.5,1.2s-0.7,0.5-1.2,0.5
		s-0.8-0.2-1.2-0.5s-0.5-0.7-0.5-1.2c0-0.5,0.2-0.8,0.5-1.2S132.5,92.8,132.9,92.8z"/>
	<path id="XMLID_72_" class="st14" d="M139.8,90.6h0.8l1.6,5.7l2.3-5.7h0.2l2.2,5.7l1.6-5.7h0.8l-2.3,7.9h-0.1l-2.3-6l-2.4,6H142
		L139.8,90.6z"/>
	<path id="XMLID_74_" class="st14" d="M151,90.2c0.2,0,0.3,0.1,0.4,0.2s0.2,0.3,0.2,0.4c0,0.2-0.1,0.3-0.2,0.4s-0.3,0.2-0.4,0.2
		c-0.2,0-0.3-0.1-0.4-0.2s-0.2-0.3-0.2-0.4c0-0.2,0.1-0.3,0.2-0.4S150.8,90.2,151,90.2z M150.6,92.6h0.8v5.8h-0.8V92.6z"/>
	<path id="XMLID_77_" class="st14" d="M153.1,90.6h4v0.8h-3.2v2.5h3.2v0.8h-3.2v3.9h-0.8V90.6z"/>
	<path id="XMLID_79_" class="st14" d="M158.5,90.2c0.2,0,0.3,0.1,0.4,0.2s0.2,0.3,0.2,0.4c0,0.2-0.1,0.3-0.2,0.4s-0.3,0.2-0.4,0.2
		c-0.2,0-0.3-0.1-0.4-0.2s-0.2-0.3-0.2-0.4c0-0.2,0.1-0.3,0.2-0.4S158.4,90.2,158.5,90.2z M158.2,92.6h0.8v5.8h-0.8V92.6z"/>
	<path id="XMLID_82_" class="st14" d="M166,92.8c0.5,0,0.8,0.2,1.2,0.5s0.5,0.7,0.5,1.2c0,0.5-0.2,0.8-0.5,1.2s-0.7,0.5-1.2,0.5
		s-0.8-0.2-1.2-0.5s-0.5-0.7-0.5-1.2c0-0.5,0.2-0.8,0.5-1.2S165.6,92.8,166,92.8z"/>
	<path id="XMLID_84_" class="st14" d="M181,91.9l-0.6,0.6c-0.4-0.4-0.9-0.8-1.4-1c-0.5-0.2-1-0.3-1.5-0.3c-0.6,0-1.2,0.2-1.8,0.5
		s-1,0.7-1.3,1.2c-0.3,0.5-0.5,1.1-0.5,1.7c0,0.6,0.2,1.2,0.5,1.7c0.3,0.5,0.8,1,1.3,1.3c0.6,0.3,1.2,0.5,1.8,0.5
		c0.8,0,1.5-0.2,2.1-0.7s0.9-1.1,1-1.8h-2.5v-0.8h3.4c0,1.2-0.4,2.2-1.1,2.9c-0.7,0.7-1.7,1.1-2.9,1.1c-1.5,0-2.6-0.5-3.5-1.5
		c-0.7-0.8-1-1.7-1-2.7c0-0.7,0.2-1.4,0.6-2.1s0.9-1.1,1.5-1.5c0.7-0.4,1.4-0.5,2.2-0.5c0.7,0,1.3,0.1,1.9,0.4
		C179.9,91,180.4,91.3,181,91.9z"/>
	<path id="XMLID_86_" class="st14" d="M182.1,97l0.7-0.4c0.5,0.9,1,1.3,1.6,1.3c0.3,0,0.5-0.1,0.7-0.2c0.2-0.1,0.4-0.3,0.5-0.5
		c0.1-0.2,0.2-0.4,0.2-0.7c0-0.3-0.1-0.5-0.3-0.8c-0.2-0.4-0.7-0.8-1.4-1.3c-0.7-0.5-1.1-0.9-1.2-1.1c-0.3-0.4-0.4-0.8-0.4-1.2
		c0-0.3,0.1-0.7,0.2-0.9s0.4-0.5,0.7-0.7c0.3-0.2,0.6-0.2,1-0.2c0.4,0,0.7,0.1,1,0.3c0.3,0.2,0.7,0.5,1,1l-0.6,0.5
		c-0.3-0.4-0.5-0.7-0.8-0.8c-0.2-0.1-0.4-0.2-0.7-0.2c-0.3,0-0.6,0.1-0.8,0.3s-0.3,0.4-0.3,0.7c0,0.2,0,0.3,0.1,0.5s0.2,0.3,0.4,0.5
		c0.1,0.1,0.4,0.4,1,0.8c0.7,0.5,1.2,1,1.4,1.3c0.3,0.4,0.4,0.8,0.4,1.2c0,0.6-0.2,1.1-0.7,1.5c-0.4,0.4-1,0.6-1.6,0.6
		c-0.5,0-0.9-0.1-1.3-0.4C182.8,98,182.5,97.6,182.1,97z"/>
	<path id="XMLID_88_" class="st14" d="M188.1,98.5l1.1-7.9h0.1l3.2,6.5l3.2-6.5h0.1l1.1,7.9h-0.8l-0.8-5.7l-2.8,5.7h-0.2l-2.8-5.7
		l-0.8,5.7H188.1z"/>
	<path id="XMLID_90_" class="st14" d="M87.2,103.8h4.5v0.8H88v2.5h3.7v0.8H88v3.1h3.7v0.8h-4.5V103.8z"/>
	<path id="XMLID_92_" class="st14" d="M93.6,103.6h0.8v2.2h1.2v0.6h-1.2v5.2h-0.8v-5.2h-1v-0.6h1V103.6z"/>
	<path id="XMLID_94_" class="st14" d="M96.7,103.6h0.8v3.3c0.3-0.4,0.6-0.7,1-0.9c0.4-0.2,0.8-0.3,1.2-0.3c0.4,0,0.8,0.1,1.2,0.3
		c0.3,0.2,0.6,0.5,0.7,0.9c0.2,0.4,0.2,1,0.2,1.8v3H101v-2.8c0-0.7,0-1.1-0.1-1.3c-0.1-0.4-0.3-0.7-0.5-0.9c-0.2-0.2-0.6-0.3-1-0.3
		c-0.5,0-0.9,0.2-1.2,0.5c-0.4,0.3-0.6,0.7-0.7,1.1c-0.1,0.3-0.1,0.8-0.1,1.6v2.1h-0.8V103.6z"/>
	<path id="XMLID_96_" class="st14" d="M108.3,109.7l0.6,0.3c-0.2,0.4-0.4,0.7-0.7,1c-0.3,0.3-0.6,0.4-0.9,0.6
		c-0.3,0.1-0.7,0.2-1.2,0.2c-1,0-1.7-0.3-2.2-0.9s-0.8-1.3-0.8-2.1c0-0.7,0.2-1.4,0.7-2c0.6-0.7,1.3-1.1,2.3-1.1
		c1,0,1.8,0.4,2.4,1.1c0.4,0.5,0.6,1.2,0.6,2h-5.3c0,0.7,0.2,1.2,0.7,1.7c0.4,0.4,0.9,0.7,1.6,0.7c0.3,0,0.6-0.1,0.9-0.2
		s0.5-0.2,0.7-0.4C107.9,110.4,108.1,110.1,108.3,109.7z M108.3,108.1c-0.1-0.4-0.2-0.7-0.4-1s-0.4-0.4-0.8-0.6s-0.6-0.2-1-0.2
		c-0.6,0-1.1,0.2-1.5,0.6c-0.3,0.3-0.5,0.7-0.7,1.2H108.3z"/>
	<path id="XMLID_99_" class="st14" d="M110.3,105.8h0.8v0.9c0.2-0.3,0.5-0.6,0.7-0.8c0.3-0.2,0.5-0.2,0.8-0.2c0.2,0,0.4,0.1,0.7,0.2
		l-0.4,0.6c-0.2-0.1-0.3-0.1-0.4-0.1c-0.3,0-0.5,0.1-0.7,0.3c-0.2,0.2-0.4,0.5-0.5,1c-0.1,0.3-0.1,1-0.1,2v2h-0.8V105.8z"/>
	<path id="XMLID_101_" class="st14" d="M114.1,105.8h0.8v1c0.3-0.4,0.6-0.7,1-0.9c0.4-0.2,0.8-0.3,1.2-0.3c0.4,0,0.8,0.1,1.2,0.3
		c0.3,0.2,0.6,0.5,0.7,0.9s0.2,1,0.2,1.8v3h-0.8v-2.8c0-0.7,0-1.1-0.1-1.3c-0.1-0.4-0.3-0.7-0.5-0.9c-0.2-0.2-0.6-0.3-1-0.3
		c-0.5,0-0.9,0.2-1.2,0.5c-0.4,0.3-0.6,0.7-0.7,1.1c-0.1,0.3-0.1,0.8-0.1,1.6v2.1h-0.8V105.8z"/>
	<path id="XMLID_103_" class="st14" d="M125.7,109.7l0.6,0.3c-0.2,0.4-0.4,0.7-0.7,1c-0.3,0.3-0.6,0.4-0.9,0.6
		c-0.3,0.1-0.7,0.2-1.2,0.2c-1,0-1.7-0.3-2.2-0.9s-0.8-1.3-0.8-2.1c0-0.7,0.2-1.4,0.7-2c0.6-0.7,1.3-1.1,2.3-1.1
		c1,0,1.8,0.4,2.4,1.1c0.4,0.5,0.6,1.2,0.6,2h-5.3c0,0.7,0.2,1.2,0.7,1.7c0.4,0.4,0.9,0.7,1.6,0.7c0.3,0,0.6-0.1,0.9-0.2
		s0.5-0.2,0.7-0.4C125.3,110.4,125.5,110.1,125.7,109.7z M125.7,108.1c-0.1-0.4-0.2-0.7-0.4-1s-0.4-0.4-0.8-0.6s-0.6-0.2-1-0.2
		c-0.6,0-1.1,0.2-1.5,0.6c-0.3,0.3-0.5,0.7-0.7,1.2H125.7z"/>
	<path id="XMLID_106_" class="st14" d="M128.6,103.6h0.8v2.2h1.2v0.6h-1.2v5.2h-0.8v-5.2h-1v-0.6h1V103.6z"/>
	<path id="XMLID_108_" class="st14" d="M137.2,106c0.5,0,0.8,0.2,1.2,0.5s0.5,0.7,0.5,1.2c0,0.5-0.2,0.8-0.5,1.2s-0.7,0.5-1.2,0.5
		s-0.8-0.2-1.2-0.5s-0.5-0.7-0.5-1.2c0-0.5,0.2-0.8,0.5-1.2S136.8,106,137.2,106z"/>
	<path id="XMLID_110_" class="st14" d="M152.2,105.1l-0.6,0.6c-0.4-0.4-0.9-0.8-1.4-1c-0.5-0.2-1-0.3-1.5-0.3
		c-0.6,0-1.2,0.2-1.8,0.5s-1,0.7-1.3,1.2c-0.3,0.5-0.5,1.1-0.5,1.7c0,0.6,0.2,1.2,0.5,1.7c0.3,0.5,0.8,1,1.3,1.3
		c0.6,0.3,1.2,0.5,1.8,0.5c0.8,0,1.5-0.2,2.1-0.7c0.6-0.5,0.9-1.1,1-1.8h-2.5v-0.8h3.4c0,1.2-0.4,2.2-1.1,2.9
		c-0.7,0.7-1.7,1.1-2.9,1.1c-1.5,0-2.6-0.5-3.5-1.5c-0.7-0.8-1-1.7-1-2.7c0-0.7,0.2-1.4,0.6-2.1s0.9-1.1,1.5-1.5
		c0.7-0.4,1.4-0.5,2.2-0.5c0.7,0,1.3,0.1,1.9,0.4C151,104.2,151.6,104.5,152.2,105.1z"/>
	<path id="XMLID_112_" class="st14" d="M154.1,103.8h1.6c0.9,0,1.5,0,1.8,0.1c0.5,0.1,0.8,0.3,1.1,0.7c0.3,0.3,0.4,0.8,0.4,1.3
		c0,0.5-0.1,1-0.4,1.3c-0.3,0.3-0.7,0.6-1.2,0.7c-0.4,0.1-1,0.1-2,0.1h-0.6v3.7h-0.8V103.8z M154.9,104.5v2.7l1.3,0
		c0.5,0,0.9,0,1.2-0.1c0.3-0.1,0.4-0.3,0.6-0.5c0.1-0.2,0.2-0.5,0.2-0.7c0-0.3-0.1-0.5-0.2-0.7c-0.1-0.2-0.3-0.4-0.6-0.5
		c-0.2-0.1-0.6-0.1-1.2-0.1H154.9z"/>
	<path id="XMLID_115_" class="st14" d="M159.8,110.2l0.7-0.4c0.5,0.9,1,1.3,1.6,1.3c0.3,0,0.5-0.1,0.7-0.2c0.2-0.1,0.4-0.3,0.5-0.5
		c0.1-0.2,0.2-0.4,0.2-0.7c0-0.3-0.1-0.5-0.3-0.8c-0.2-0.4-0.7-0.8-1.4-1.3c-0.7-0.5-1.1-0.9-1.2-1.1c-0.3-0.4-0.4-0.8-0.4-1.2
		c0-0.3,0.1-0.7,0.2-0.9s0.4-0.5,0.7-0.7c0.3-0.2,0.6-0.2,1-0.2c0.4,0,0.7,0.1,1,0.3c0.3,0.2,0.7,0.5,1,1l-0.6,0.5
		c-0.3-0.4-0.5-0.7-0.8-0.8c-0.2-0.1-0.4-0.2-0.7-0.2c-0.3,0-0.6,0.1-0.8,0.3s-0.3,0.4-0.3,0.7c0,0.2,0,0.3,0.1,0.5s0.2,0.3,0.4,0.5
		c0.1,0.1,0.4,0.4,1,0.8c0.7,0.5,1.2,1,1.4,1.3c0.3,0.4,0.4,0.8,0.4,1.2c0,0.6-0.2,1.1-0.7,1.5c-0.4,0.4-1,0.6-1.6,0.6
		c-0.5,0-0.9-0.1-1.3-0.4S160.2,110.8,159.8,110.2z"/>
</g>
<rect id="XMLID_36_" x="0" class="st13" width="252" height="216"/>
<g id="XMLID_7_">
</g>
<g id="XMLID_28_">
</g>
<g id="XMLID_285_">
</g>
<g id="XMLID_286_">
</g>
<g id="XMLID_287_">
</g>
<g id="XMLID_288_">
</g>
</svg>
